<svg xmlns:svg="http://www.w3.org/2000/svg" xmlns="http://www.w3.org/2000/svg" version="1.1" width="300" height="100" xml:space="preserve"><style>.s0{fill:#333;}</style><g transform="matrix(1.25,0,0,-1.25,-178.10254,834.02091)"><g transform="matrix(0.73419876,0,0,0.73419876,47.261577,130.80475)" fill="#333"><path d="m388.304 666.61c-3.644 0.184-5.727 4.498-5.472 8.905 0.447 7.768 6.939 15.608 6.939 15.608 1.516-1.383 6.075-8.879 5.827-14.615-0.242-5.603-3.652-10.082-7.294-9.898zm4.338 27.094c1.567 1.825 2.642 2.889 2.4 4.154-0.242 1.266-4.527 2.143-6.435 0.383-5.641 4.477-4.486-0.767-3.67-1.937-6.664-4.686-11.173-17.023-7.545-26.649 3.546-9.41 14.243-10.57 19.852-3.957 4.965 5.856 4.08 16.62-4.602 28.006M204.363 635.315l1.838 2.202M204.363 635.315l1.838 2.202M204.363 635.315l1.838 2.202M204.363 635.315l1.838 2.202c1.271-1.05 2.605-1.717 4.22-1.717 1.273 0 2.041 0.505 2.041 1.333l0 0.041c0 0.788-0.485 1.191-2.848 1.797-2.847 0.727-4.685 1.515-4.685 4.323l0 0.04c0 2.564 2.06 4.261 4.948 4.261 2.06 0 3.816-0.646 5.25-1.797l-1.616-2.343c-1.252 0.869-2.484 1.394-3.676 1.394-1.191 0-1.817-0.545-1.817-1.232l0-0.04c0-0.929 0.606-1.232 3.049-1.858 2.868-0.747 4.484-1.777 4.484-4.241l0-0.041c0-2.807-2.14-4.381-5.19-4.381-2.141 0-4.301 0.748-5.998 2.261M230.376 640.284l0 0.04c0 2.423-1.777 4.443-4.281 4.443-2.504 0-4.241-1.98-4.241-4.403l0-0.04c0-2.424 1.778-4.443 4.281-4.443 2.504 0 4.241 1.98 4.241 4.403zm-11.774 0 0 0.04c0 4.019 3.17 7.311 7.533 7.311 4.363 0 7.492-3.252 7.492-7.27l0-0.04c0-4.019-3.171-7.31-7.532-7.31-4.362 0-7.492 3.251-7.492 7.27M237.204 647.393l2.867 0 6.625-8.705 0 8.705 3.069 0 0-14.136-2.646 0-6.845 8.986 0-8.986-3.07 0 0 14.136zM253.725 640.284l0 0.04c0 4.019 3.131 7.311 7.412 7.311 2.544 0 4.079-0.687 5.553-1.938l-1.959-2.364c-1.09 0.908-2.06 1.434-3.695 1.434-2.261 0-4.06-2-4.06-4.403l0-0.04c0-2.585 1.778-4.484 4.282-4.484 1.131 0 2.141 0.284 2.928 0.848l0 2.021-3.129 0 0 2.686 6.139 0 0-6.14c-1.454-1.232-3.453-2.241-6.038-2.241-4.403 0-7.432 3.09-7.432 7.27M278.044 640.284l0 0.04c0 4.019 3.029 7.311 7.372 7.311 2.664 0 4.261-0.888 5.574-2.181l-1.98-2.282c-1.091 0.99-2.202 1.596-3.615 1.596-2.383 0-4.1-1.98-4.1-4.403l0-0.04c0-2.424 1.676-4.443 4.1-4.443 1.615 0 2.604 0.646 3.715 1.656l1.98-1.999c-1.455-1.554-3.07-2.523-5.796-2.523-4.16 0-7.25 3.211-7.25 7.27M305.531 640.284l0 0.04c0 2.423-1.778 4.443-4.281 4.443-2.505 0-4.241-1.98-4.241-4.403l0-0.04c0-2.424 1.777-4.443 4.281-4.443 2.504 0 4.241 1.98 4.241 4.403zm-11.774 0 0 0.04c0 4.019 3.17 7.311 7.533 7.311 4.363 0 7.492-3.252 7.492-7.27l0-0.04c0-4.019-3.17-7.31-7.532-7.31-4.362 0-7.492 3.251-7.492 7.27M312.36 647.393l2.868 0 6.624-8.705 0 8.705 3.07 0 0-14.136-2.646 0-6.846 8.986 0-8.986-3.07 0 0 14.136zM332.516 644.525l-4.302 0 0 2.868 11.713 0 0-2.868-4.301 0 0-11.268-3.11 0 0 11.268zM343.524 647.393l10.663 0 0-2.767-7.572 0 0-2.867 6.663 0 0-2.767-6.663 0 0-2.969 7.673 0 0-2.766-10.764 0 0 14.136zM357.28 635.315l1.837 2.202c1.272-1.05 2.605-1.717 4.222-1.717 1.271 0 2.039 0.505 2.039 1.333l0 0.041c0 0.788-0.485 1.191-2.848 1.797-2.848 0.727-4.685 1.515-4.685 4.323l0 0.04c0 2.564 2.059 4.261 4.948 4.261 2.059 0 3.817-0.646 5.25-1.797l-1.616-2.343c-1.252 0.869-2.484 1.394-3.676 1.394-1.191 0-1.817-0.545-1.817-1.232l0-0.04c0-0.929 0.605-1.232 3.049-1.858 2.868-0.747 4.484-1.777 4.484-4.241l0-0.041c0-2.807-2.14-4.381-5.191-4.381-2.139 0-4.301 0.748-5.997 2.261M375.357 644.525l-4.302 0 0 2.868 11.713 0 0-2.868-4.302 0 0-11.268-3.109 0 0 11.268zM183.749 712.411c-12.572 0.911-26.467-9.502-25.936-22.988 0.051-1.295 1.146-2.481 2.718-2.481 1.945 0 7.64 0.216 7.64 0.216 0 0-11.237-8.859-11.237-19.232 0-5.474 4.106-12.029 12.677-12.029 12.014 0 20.968 9.836 20.951 18.168-0.001 0.634-0.729 1.529-1.902 0.106-1.862-2.257-11.846-12.511-21.714-12.511-3.313 0-6.194 1.874-6.194 5.834 0 5.186 8.212 15.271 22.33 19.233 3.457 1.008 3.745 5.834-0.649 6.05-4.319 0.212-19.232-1.44-20.312-1.44-1.081 0-1.178 0.233-0.793 1.224 0.505 1.297 5.979 10.877 22.402 12.678 5.546 0.432 4.99 6.812 0.02 7.173M201.525 696.659c0 3.258-4.838 5.259-6.66 0.646-3.51-8.881-4.576-35.793 7.17-35.793 5.157 0 11.737 11.3 11.737 22.329 0 9.096-3.724 15.041-4.512 16.114-0.787 1.074-1.862 0.501-1.719-1.505 0.144-2.004 0.716-20.553-5.085-27.286-2.291-2.506-3.98 0.105-4.225 2.578-0.716 7.234 3.294 18.192 3.294 22.918M255.204 667.752c-3.298 0-5.131 4.26-5.131 8.887 0 8.153 5.863 15.571 5.863 15.571 1.612-2.056 5.497-7.858 5.497-13.734 0-5.877-2.933-10.724-6.229-10.724zm2.638 27.029c0 0 1.864 2.532 0.742 3.96-1.26 1.61-5.301 2.112-9.086-2.129-4.984-5.582-8.475-17.361-4.701-27.244 3.608-9.449 13.712-10.247 18.395-3.085 4.177 6.391 3.078 17.041-5.35 28.498M224.698 685.142c0.289 3.673 0.577 7.491 0.577 7.491 0 0 8.212 2.089 11.02 1.8 2.446-0.251 2.954-1.296 1.709-3.229-2.932-4.553-9.675-6.128-13.305-6.062zm17.628-24.362c-3.513 4.875-7.925 14.635-14.674 20.544 6.843 0.432 15.415 5.762 15.415 11.453 0 4.214-4.384 7.251-10.074 7.251-5.691 0-11.967-1.921-14.344-3.361-3.097-1.801-0.792-6.05 2.09-4.898 0 0-1.081-5.041-1.369-7.707-2.339 0.289-2.809-0.144-2.665-0.648 0.145-0.504 1.152-0.937 2.305-2.378-0.361-3.168-0.998-17.262-0.854-18.486 0.145-1.234 0.888-1.447 1.945-0.144 0.937 1.151 2.943 3.937 3.88 14.453 1.08-0.935 4.034-4.891 7.635-9.507 5.283-6.771 7.024-7.259 9.195-8.023 1.171-0.413 2.378 0.259 1.518 1.453M329.848 699.093c0.191-7.321-6.246-18.961-6.658-27.457-0.302-6.194 0.808-8.699 1.337-9.515 0.552-0.854 1.76-0.928 2.083 0.625 0.962 4.641 7.591 16.875 8.44 26.713 0.521 6.03-1.349 9.72-3.503 10.418-0.961 0.311-1.726 0.194-1.699-0.784M353.855 700.027c-9.006 0-15.502-3.193-15.502-10.444 0-4.466 3.313-7.539 8.596-8.404 3.073-0.576 6.065-0.802 7.155-1.201 1.971-0.719-2.746-2.989-10.087-7.968-5.016-3.402-8.679-6.996-10.636-10.812-0.678-1.321 0.24-2.582 1.657-1.606 2.753 1.896 8.785 5.055 14.638 8.275 5.57 3.065 10.817 6.432 10.817 10.623 0 3.794-2.848 5.225-5.043 5.475-3.794 0.431-12.006 0.096-12.006 4.849 0 1.777 2.353 4.107 9.916 4.107 5.835 0 5.247 7.107 0.495 7.107M365.195 698.706c2.947-5.657-2.068-21.044-2.068-26.89 0-5.846 0.658-7.907 2.206-9.802 0.791-0.971 1.83-0.389 1.926 0.659 0.48 5.153 6.015 19.139 6.373 25.637 0.456 8.277-3.631 11.485-6.026 11.688-1.327 0.111-3.082-0.128-2.41-1.292M367.223 706.687c-0.15-5.391 8.84-6.26 8.84 0.33 0 5.743-4.805 10.494-5.77 11.284-1.5 1.223-3.621 1.002-3.121-0.975 1.15-4.143 0.103-8.756 0.051-10.639M428.898 662.071c-1.175 7.241 0.441 16.557 0.441 25.335 0 6.702-5.57 10.147-8.874 10.147-4.294 0-6.844-1.936-6.844-1.936 0.048 1.275 0.269 3.238 0.228 3.857-0.047 0.708-0.896 0.709-2.123 0.047-6.75-4.2-7.725-16.252-7.725-24.605 0-8.354 1.33-11.315 1.469-12.447 0.135-1.075 1.456-1.235 1.975-0.291 3.587 6.986 4.006 19.706 5.232 26.786 1.7 2.313 8.636 2.737 8.921-2.785 0.288-5.62-0.254-19.826 5.494-24.786 0.775-0.668 1.975-0.362 1.805 0.678M272.9 691.408c0.15 13.468 7.159 17.684 10.976 17.684 5.331 0 7.532-4.069 7.892-5.871 0.36-1.801 2.377-3.241 3.025-0.287 0.649 2.953 6.92 11.958 14.627 11.958 7.059 0 9.503-7.279 9.292-13.471-0.577-16.855-22.291-30.307-25.149-38.801-2.545 5.145-20.843 12.581-20.663 28.789zm39.042 27.66c-6.339 0-13.835-4.682-18.373-12.462-1.224 2.81-5.587 5.871-10.772 5.871-4.178 0-15.907-5.222-15.907-22.078 0-21.753 22.009-26.221 26.458-32.982 0.306-0.465 1.291-0.816 1.666 0.295 3.55 10.477 31.078 22.315 31.078 43.636 0 11.957-7.811 17.719-14.15 17.719" fill="#333"></path></g></g></svg>
