<?xml version="1.0" standalone="no"?>
<!DOCTYPE svg PUBLIC "-//W3C//DTD SVG 20010904//EN"
 "http://www.w3.org/TR/2001/REC-SVG-20010904/DTD/svg10.dtd">
<svg version="1.0" xmlns="http://www.w3.org/2000/svg"
 width="2450.000000pt" height="786.000000pt" viewBox="0 0 2450.000000 786.000000"
 preserveAspectRatio="xMidYMid meet">

<g transform="translate(0.000000,786.000000) scale(0.100000,-0.100000)"
fill="#000000" stroke="none">
<path d="M0 3930 l0 -3930 12250 0 12250 0 0 3930 0 3930 -12250 0 -12250 0 0
-3930z m24430 0 l0 -3800 -5140 0 -5140 0 -2 628 -3 627 -287 3 -288 2 -2
-627 -3 -628 -6717 -3 -6718 -2 0 3800 0 3800 12150 0 12150 0 0 -3800z"/>
<path d="M16393 5569 c-186 -27 -396 -109 -520 -203 -171 -129 -268 -306 -293
-531 -28 -260 50 -500 211 -651 166 -155 354 -235 827 -354 307 -77 406 -117
486 -195 68 -66 91 -121 90 -220 0 -96 -25 -157 -92 -223 -154 -155 -571 -202
-810 -92 -115 54 -207 166 -242 298 l-11 42 -296 0 -296 0 7 -92 c19 -240 83
-379 250 -535 220 -206 511 -303 904 -303 583 0 1019 270 1133 702 31 118 32
308 1 431 -61 246 -209 432 -432 546 -136 70 -235 102 -582 191 -193 50 -335
92 -381 113 -165 76 -233 192 -194 328 42 144 205 229 437 229 162 0 272 -34
355 -111 52 -48 91 -109 110 -172 l12 -42 291 -3 291 -2 -5 57 c-46 521 -417
807 -1040 802 -82 -1 -177 -5 -211 -10z"/>
<path d="M4041 5478 c-5 -13 -260 -666 -566 -1453 -306 -786 -559 -1436 -562
-1442 -4 -10 64 -13 321 -13 l327 0 15 36 c8 20 72 190 140 377 69 187 131
355 139 374 l14 33 510 0 509 0 10 -27 c164 -455 266 -734 277 -760 l14 -33
325 0 c180 0 326 1 326 3 0 1 -256 659 -568 1462 l-568 1460 -327 3 -327 2 -9
-22z m504 -1111 c87 -241 156 -440 153 -442 -3 -3 -151 -4 -330 -3 l-326 3
166 453 c91 249 168 447 172 440 4 -7 78 -210 165 -451z"/>
<path d="M6922 4038 l3 -1463 307 -3 308 -2 2 722 3 722 575 -722 574 -722
373 0 c205 0 373 2 373 5 0 3 -196 245 -435 537 l-434 532 107 27 c126 32 180
55 284 121 87 56 206 177 256 261 56 92 103 212 124 315 28 138 22 340 -16
465 -78 260 -241 454 -477 566 -106 51 -206 77 -350 90 -69 7 -407 11 -847 11
l-732 0 2 -1462z m1467 902 c144 -19 229 -66 291 -162 54 -83 77 -187 63 -285
-24 -167 -118 -262 -311 -315 -71 -20 -109 -22 -484 -26 l-408 -4 0 394 c0
217 3 398 7 401 11 11 751 8 842 -3z"/>
<path d="M10380 5210 l0 -290 510 0 510 0 0 -1175 0 -1175 308 2 307 3 3 1173
2 1172 510 0 510 0 0 290 0 290 -1330 0 -1330 0 0 -290z"/>
<path d="M18672 5478 c8 -13 268 -431 576 -930 l562 -908 0 -535 0 -535 305 0
305 0 0 538 0 537 561 905 c308 498 567 915 575 928 l14 22 -359 0 -359 0
-138 -232 c-76 -128 -191 -323 -257 -433 -261 -442 -342 -575 -347 -575 -3 1
-169 280 -369 620 l-365 620 -359 0 -359 0 14 -22z"/>
</g>
</svg>
