<?xml version="1.0" encoding="UTF-8" standalone="no"?>
<svg viewBox="0 0 114 24" version="1.1" xmlns="http://www.w3.org/2000/svg" xmlns:xlink="http://www.w3.org/1999/xlink">
    <g id="atlassian-logo" transform="translate(2.000000, 0.000000)">
        <g id="charlie" fill="#5BA5CE">
            <path id="earth" d="M25.2059119,0.265420118 C25.0935597,0.110627219 24.9141006,0.0183195266 24.726478,0.0183195266 C24.6294843,0.0183195266 24.5338742,0.0434556213 24.4500252,0.0904615385 C20.9333459,2.06627219 16.8564277,3.11133728 12.6603774,3.11233136 C8.46432704,3.11133728 4.38768553,2.06627219 0.871006289,0.0906035503 C0.787157233,0.0434556213 0.69154717,0.0184615385 0.594691824,0.0184615385 C0.406654088,0.0184615385 0.227471698,0.110627219 0.115257862,0.264994083 C-0.0511949686,0.492071006 -0.0564528302,0.873230769 0.227056604,1.10030769 C1.98830189,2.448 3.92983648,3.50030769 5.99783648,4.21973964 C8.14138365,4.96615385 10.3827547,5.34518343 12.6595472,5.34617751 L12.6612075,5.34617751 C14.9382767,5.34518343 17.1796478,4.96615385 19.3230566,4.21973964 C21.391195,3.50002367 23.3325912,2.448 25.0961887,1.09860355 C25.3774843,0.873088757 25.3720881,0.491928994 25.2059119,0.265420118"></path>
            <path id="charlie-head" d="M12.6634214,7.33647337 C13.5625157,7.33647337 14.0840126,7.28094675 14.2673459,7.28094675 C14.4891447,7.28094675 14.7012579,7.4675503 14.7012579,7.72885207 C14.7012579,7.80525444 14.6836855,7.85964497 14.6662516,7.90778698 C14.5469811,8.23498225 14.0034843,9.41226036 12.991761,10.4222485 C12.8783019,10.535432 12.7496226,10.5565917 12.6609308,10.5565917 L12.6598239,10.5565917 C12.5715472,10.5565917 12.4428679,10.535432 12.3295472,10.4222485 C11.3176855,9.41226036 10.7740503,8.23498225 10.6550566,7.90778698 C10.6374843,7.85964497 10.6199119,7.80525444 10.6199119,7.72885207 C10.6199119,7.4675503 10.8321635,7.28094675 11.0541006,7.28094675 C11.2372956,7.28094675 11.7586541,7.33647337 12.6574717,7.33647337 L12.6634214,7.33647337"></path>
            <path id="charlie-body" d="M21.1641384,5.89377515 C21.0804277,5.8284497 20.9796981,5.79436686 20.8775849,5.79436686 C20.8209937,5.79436686 20.7637107,5.80515976 20.7093333,5.82646154 C19.69,6.22650888 18.6550314,6.53027219 17.7101384,6.75621302 C17.5175346,6.80236686 17.3618742,6.9492071 17.2972579,7.1255858 C16.6088931,9.06078107 14.8512453,10.9033846 13.0071195,12.8336095 C12.9330943,12.9057515 12.8294591,13.0008994 12.6606541,13.0008994 C12.4922642,13.0008994 12.3895975,12.9087337 12.3141887,12.8336095 C10.4703396,10.9033846 8.71269182,9.06731361 8.02418868,7.13183432 C7.95957233,6.95573964 7.80377358,6.8087574 7.61144654,6.76260355 C6.66613836,6.53652071 5.62840252,6.22338462 4.61045283,5.82347929 C4.55579874,5.8020355 4.49851572,5.79138462 4.4416478,5.79138462 C4.33967296,5.79138462 4.2408805,5.82433136 4.15730818,5.88979882 C4.02655346,5.99204734 3.95889308,6.15791716 3.97425157,6.31725444 C4.13046541,7.92653254 4.74992453,9.49973964 5.86805031,11.148355 C6.91906918,12.6984142 8.28998742,14.1330178 9.61538365,15.5204734 C12.057522,18.0769704 14.3646164,20.4915976 14.567044,23.291645 C14.5851698,23.544142 14.7902264,23.7399763 15.0374843,23.7399763 L17.9066164,23.7399763 C18.0358491,23.7399763 18.1592704,23.6854438 18.2485157,23.5894438 C18.3374843,23.4933018 18.3843899,23.364355 18.3780252,23.231716 C18.287673,21.359716 17.6012453,19.4850178 16.2795849,17.5011124 C16.0025786,17.0851598 15.7057862,16.680426 15.3955723,16.284355 C15.2696604,16.1230296 15.3223774,15.9226509 15.4188176,15.8216805 C15.5140126,15.7214201 15.6098994,15.6215858 15.7060629,15.5204734 C17.0315975,14.1328757 18.402239,12.6984142 19.4535346,11.148355 C20.571522,9.49959763 21.1909811,7.9356213 21.347195,6.32662722 C21.3628302,6.16501775 21.2911572,5.99332544 21.1641384,5.89377515"></path>
            <path id="charlie-leg" d="M9.58189937,17.6983669 C9.51396226,17.6255148 9.41433962,17.5511006 9.24691824,17.5511006 C9.03272956,17.5511006 8.90557233,17.7030533 8.85755975,17.7784615 C7.65074214,19.6632426 7.02740881,21.4422249 6.94134591,23.2300118 C6.93498113,23.3617988 6.98230189,23.4927337 7.07127044,23.5891598 C7.16037736,23.6847337 7.28545912,23.7399763 7.41441509,23.7399763 L10.2788428,23.7399763 C10.5251321,23.7399763 10.7328176,23.5420118 10.7509434,23.2897988 C10.8133459,22.428213 11.074717,21.564497 11.5504151,20.6568994 C11.7153459,20.3429112 11.5872201,20.0479527 11.4923019,19.9218462 C11.0202013,19.2917396 10.4419748,18.6195976 9.58189937,17.6983669"></path>
        </g>
        <g id="lettering" fill="#274970">
            <path id="a-1" d="M32.0701887,6.45671006 C32.013044,6.27053254 31.8447925,6.14414201 31.6545409,6.14414201 L27.5874465,6.14414201 C27.397195,6.14414201 27.2289434,6.27053254 27.1717987,6.45671006 L22.0404025,23.159858 C21.9987547,23.2959053 22.0224151,23.4438817 22.1046038,23.5591953 C22.1866541,23.6737988 22.3171321,23.7418225 22.4560503,23.7418225 L25.2561384,23.7418225 C25.4492956,23.7418225 25.6194843,23.6113136 25.6741384,23.4208757 L29.2078365,11.1367101 C29.2078365,11.1367101 29.3002642,10.8302485 29.6203019,10.8302485 C29.9455975,10.8302485 30.0247421,11.1492071 30.0247421,11.1494911 L31.6643648,16.9741065 L29.4618742,16.9741065 C29.2666415,16.9741065 29.0950692,17.1073136 29.0423522,17.3003077 L28.4103019,19.6065799 C28.3733585,19.7416331 28.4000629,19.8860592 28.4825283,19.9976805 C28.5648553,20.1094438 28.6933962,20.1749112 28.8299623,20.1749112 L32.5810314,20.1749112 L33.5685409,23.4275503 C33.6252704,23.6144379 33.7937987,23.7418225 33.9847421,23.7418225 L36.7859371,23.7418225 C36.9249937,23.7418225 37.0554717,23.6737988 37.137522,23.5591953 C37.2195723,23.4438817 37.2433711,23.2959053 37.2017233,23.159858 L32.0701887,6.45671006"></path>
            <path id="t" d="M44.269673,21.167716 C44.2511321,21.0431716 44.1827799,20.9324024 44.0805283,20.8622485 C43.9784151,20.7922367 43.8525031,20.7697988 43.7333711,20.8003314 C43.2787044,20.916213 42.8432704,20.9802604 42.5071824,20.9802604 C41.8700126,20.9802604 41.5860881,20.6966627 41.5860881,20.0608757 L41.5860881,13.6612544 L44.086478,13.6612544 C44.3272327,13.6612544 44.5224654,13.4607337 44.5224654,13.2139172 L44.5224654,11.2177988 C44.5224654,10.9708402 44.3272327,10.7707456 44.086478,10.7707456 L41.5860881,10.7707456 L41.5860881,7.68908876 C41.5860881,7.55971598 41.531434,7.43659172 41.4363774,7.35181065 C41.3411824,7.26688757 41.2144403,7.22840237 41.0900503,7.24615385 L38.5157736,7.61424852 C38.3003396,7.64506509 38.1398365,7.83408284 38.1398365,8.05718343 L38.1398365,10.7707456 L36.7375094,10.7707456 C36.4967547,10.7707456 36.3016604,10.9708402 36.3016604,11.2177988 L36.3016604,13.2139172 C36.3016604,13.4607337 36.4967547,13.6612544 36.7375094,13.6612544 L38.1398365,13.6612544 L38.1398365,20.4742722 C38.1398365,22.8140592 39.3382138,24 41.7013459,24 C42.3737987,24 43.5158616,23.8410888 44.2627547,23.5745325 C44.4610314,23.5039527 44.5821006,23.2983195 44.5508302,23.0858698 L44.269673,21.167716"></path>
            <path id="l" d="M49.0356478,5.81836686 L46.4612327,5.81836686 C46.2206164,5.81836686 46.0253836,6.01846154 46.0253836,6.26584615 L46.0253836,23.2943432 C46.0253836,23.5415858 46.2206164,23.7418225 46.4612327,23.7418225 L49.0356478,23.7418225 C49.2762642,23.7418225 49.4714969,23.5415858 49.4714969,23.2943432 L49.4714969,6.26584615 C49.4714969,6.01846154 49.2762642,5.81836686 49.0356478,5.81836686"></path>
            <path id="a-2" d="M57.3826415,18.9859882 L57.3826415,20.5418698 C56.9559245,20.7753373 56.1827421,21.1096331 55.2526541,21.1096331 C54.4501384,21.1096331 54.2055094,20.8585562 54.2055094,20.0347456 C54.2055094,19.2347929 54.3568805,18.9859882 55.3030189,18.9859882 L57.3826415,18.9859882 L57.3826415,18.9859882 Z M55.655434,10.512142 C54.3520377,10.512142 52.7659623,10.7230296 51.6147673,11.0497988 C51.4004403,11.1102959 51.2652579,11.3271479 51.3006792,11.5519527 L51.6020377,13.4701065 C51.620717,13.5896805 51.6860252,13.6961893 51.7827421,13.7656331 C51.8793208,13.8349349 51.9994214,13.8612071 52.1155094,13.8376331 C53.1860377,13.6240473 54.2912956,13.5061775 55.2274717,13.5061775 C57.0855723,13.5061775 57.3826415,13.9087811 57.3826415,15.2010888 L57.3826415,16.3278107 L54.6230943,16.3278107 C51.9855849,16.3278107 50.8601258,17.4443077 50.8601258,20.0608757 C50.8601258,22.5642604 52.0939245,24 54.2452201,24 C55.4895346,24 56.7356478,23.6455385 57.7830692,22.9973964 L57.8932075,23.412213 C57.944956,23.6067692 58.1170818,23.7418225 58.3138365,23.7418225 L60.3929057,23.7418225 C60.633522,23.7418225 60.8287547,23.5415858 60.8287547,23.2943432 L60.8287547,15.2529231 C60.8287547,11.7969231 59.426566,10.512142 55.655434,10.512142 L55.655434,10.512142 Z"></path>
            <path id="s-1" d="M67.2798742,15.7136095 C65.6824528,15.2909822 65.6824528,15.2739408 65.6824528,14.3742959 C65.6824528,13.7703195 65.7408428,13.4801893 67.0569686,13.4801893 C67.9585535,13.4801893 69.2889308,13.6419408 70.143195,13.7920473 C70.2606667,13.8127811 70.3811824,13.7832426 70.4766541,13.7099645 C70.5722642,13.6371124 70.6346667,13.5270533 70.6493333,13.4057751 L70.8920252,11.3920473 C70.9194214,11.1648284 70.775522,10.9532308 70.5582893,10.9012544 C69.5703648,10.6649467 68.1958491,10.512142 67.0569686,10.512142 C63.0979371,10.512142 62.2867044,12.0457278 62.2867044,14.3481657 C62.2867044,16.8798107 62.7449686,17.7306036 65.7793082,18.4893728 C67.7767421,18.9827219 67.7767421,19.3493964 67.7767421,19.9573491 C67.7767421,20.7557396 67.7101887,21.0319527 66.4023648,21.0319527 C65.3494088,21.0319527 64.1308302,20.8638107 63.0587799,20.5704142 C62.9413082,20.5383195 62.8160881,20.5580592 62.713283,20.6249467 C62.610478,20.6912663 62.5397736,20.7994793 62.5177736,20.9223195 L62.1773962,22.8330888 C62.1381006,23.0539172 62.2638742,23.2699172 62.4716981,23.3390769 C63.6408805,23.7284734 65.3192453,24 66.5533208,24 C70.3868553,24 71.1724906,22.3529467 71.1724906,19.8796686 C71.1724906,17.1486391 70.6998365,16.6426509 67.2798742,15.7136095"></path>
            <path id="s-2" d="M77.2273333,15.7136095 C75.6299119,15.2909822 75.6299119,15.2739408 75.6299119,14.3742959 C75.6299119,13.7703195 75.6883019,13.4801893 77.0044277,13.4801893 C77.9060126,13.4801893 79.2362516,13.6419408 80.0906541,13.7920473 C80.2081258,13.8127811 80.3286415,13.7832426 80.4241132,13.7099645 C80.5197233,13.6371124 80.5821258,13.5270533 80.5966541,13.4057751 L80.8393459,11.3920473 C80.8667421,11.1648284 80.7229811,10.9532308 80.5057484,10.9012544 C79.5176855,10.6649467 78.1433082,10.512142 77.0044277,10.512142 C73.0453962,10.512142 72.2341635,12.0457278 72.2341635,14.3481657 C72.2341635,16.8798107 72.6922893,17.7306036 75.7267673,18.4893728 C77.7242013,18.9827219 77.7242013,19.3493964 77.7242013,19.9573491 C77.7242013,20.7557396 77.6576478,21.0319527 76.3496855,21.0319527 C75.2967296,21.0319527 74.0781509,20.8638107 73.006239,20.5704142 C72.8886289,20.5383195 72.7634088,20.5580592 72.6607421,20.6249467 C72.5579371,20.6912663 72.4870943,20.7994793 72.4652327,20.9223195 L72.1248553,22.8330888 C72.0854214,23.0539172 72.2113333,23.2699172 72.4191572,23.3390769 C73.5882013,23.7284734 75.2667044,24 76.5007799,24 C80.3343145,24 81.1199497,22.3529467 81.1199497,19.8796686 C81.1199497,17.1486391 80.6472956,16.6426509 77.2273333,15.7136095"></path>
            <path id="i-dot" d="M85.5586918,5.8176568 L82.9842767,5.8176568 C82.7436604,5.8176568 82.5484277,6.01789349 82.5484277,6.26485207 L82.5484277,8.60108876 C82.5484277,8.84833136 82.7436604,9.04842604 82.9842767,9.04842604 L85.5586918,9.04842604 C85.7993082,9.04842604 85.9945409,8.84833136 85.9945409,8.60108876 L85.9945409,6.26485207 C85.9945409,6.01789349 85.7993082,5.8176568 85.5586918,5.8176568"></path>
            <path id="i-base" d="M85.5586918,10.7707456 L82.9842767,10.7707456 C82.7436604,10.7707456 82.5484277,10.9708402 82.5484277,11.2177988 L82.5484277,23.2943432 C82.5484277,23.5415858 82.7436604,23.7418225 82.9842767,23.7418225 L85.5586918,23.7418225 C85.7993082,23.7418225 85.9945409,23.5415858 85.9945409,23.2943432 L85.9945409,11.2177988 C85.9945409,10.9708402 85.7993082,10.7707456 85.5586918,10.7707456"></path>
            <path id="a-3" d="M93.9704403,18.9859882 L93.9704403,20.5418698 C93.5435849,20.7753373 92.7705409,21.1096331 91.8403145,21.1096331 C91.0377987,21.1096331 90.7933082,20.8585562 90.7933082,20.0347456 C90.7933082,19.2347929 90.9446792,18.9859882 91.8906792,18.9859882 L93.9704403,18.9859882 L93.9704403,18.9859882 Z M92.2432327,10.512142 C90.9396981,10.512142 89.353761,10.7230296 88.202566,11.0497988 C87.988239,11.1102959 87.8530566,11.3271479 87.888478,11.5519527 L88.1896981,13.4701065 C88.2085157,13.5896805 88.2738239,13.6961893 88.3705409,13.7656331 C88.4671195,13.8349349 88.5870818,13.8612071 88.7033082,13.8376331 C89.7736981,13.6240473 90.878956,13.5061775 91.8152704,13.5061775 C93.6732327,13.5061775 93.9704403,13.9087811 93.9704403,15.2010888 L93.9704403,16.3278107 L91.2107547,16.3278107 C88.5733836,16.3278107 87.4479245,17.4443077 87.4479245,20.0608757 C87.4479245,22.5642604 88.6817233,24 90.8330189,24 C92.0773333,24 93.3234465,23.6455385 94.3707296,22.9973964 L94.4810063,23.412213 C94.5327547,23.6067692 94.7048805,23.7418225 94.9014969,23.7418225 L96.9807044,23.7418225 C97.2213208,23.7418225 97.4165535,23.5415858 97.4165535,23.2943432 L97.4165535,15.2529231 C97.4165535,11.7969231 96.0143648,10.512142 92.2432327,10.512142 L92.2432327,10.512142 Z"></path>
            <path id="n" d="M106.938403,10.512142 C105.573711,10.512142 103.715333,10.9949822 102.14517,11.7513373 L101.957132,11.0921183 C101.902755,10.9015385 101.732289,10.7707456 101.538855,10.7707456 L99.6324654,10.7707456 C99.3917107,10.7707456 99.196478,10.9708402 99.196478,11.2177988 L99.196478,23.2943432 C99.196478,23.5415858 99.3917107,23.7418225 99.6324654,23.7418225 L102.206742,23.7418225 C102.447358,23.7418225 102.642591,23.5415858 102.642591,23.2943432 L102.642591,14.9305562 C103.569912,14.4462959 104.873723,13.9457041 105.654101,13.9457041 C106.233849,13.9457041 106.449283,14.1668166 106.449283,14.7617041 L106.449283,23.2943432 C106.449283,23.5415858 106.644516,23.7418225 106.88527,23.7418225 L109.459547,23.7418225 C109.700164,23.7418225 109.895396,23.5415858 109.895396,23.2943432 L109.895396,14.4257041 C109.895396,11.8287337 108.900553,10.512142 106.938403,10.512142"></path>
        </g>
    </g>
</svg>
