<svg xmlns="http://www.w3.org/2000/svg" viewBox="0 0 283 65"><path d="M104.5 2.6H75.4v59.6H104c18.5-.2 31.2-13.2 31.2-29.9 0-16.5-12.5-29.2-30.7-29.7zM104 52H86.1V12.9h18.1c11.7.3 19.4 8.5 19.4 19.6-.1 11.2-7.8 19.3-19.6 19.5zM59.6 13.1V2.6H0v10.5h24.5v38.7H0v10.5h59.6V51.8H35.2V13.1zM208.4 13.1V2.6h-60.2v59.7h60.2V51.8H159V37.7h38.5V27.2H159V13.1zM250.7 0c-18.1 0-32.8 14.5-32.8 32.4s14.7 32.4 32.8 32.4c18.1 0 32.8-14.5 32.8-32.4S268.8 0 250.7 0zm0 53.7c-11.8 0-21.5-9.5-21.5-21.2s9.6-21.2 21.5-21.2c11.8 0 21.5 9.5 21.5 21.2s-9.7 21.2-21.5 21.2z"></path></svg>
