<?xml version="1.0" encoding="utf-8"?>
<!DOCTYPE svg PUBLIC "-//W3C//DTD SVG 1.1//EN" "http://www.w3.org/Graphics/SVG/1.1/DTD/svg11.dtd">
<svg version="1.1" id="VARG" xmlns="http://www.w3.org/2000/svg" xmlns:xlink="http://www.w3.org/1999/xlink" x="0px" y="0px"
 width="286.5px" height="63px" viewBox="0 0 286.5 63" enable-background="new 0 0 286.5 63" xml:space="preserve">
<path fill="#EB2D2D" d="M31.51,42.141c5.774,0,10.455-4.683,10.455-10.455c0-5.773-4.681-10.455-10.455-10.455
c-5.771,0-10.453,4.682-10.453,10.455C21.057,37.458,25.739,42.141,31.51,42.141L31.51,42.141z M31.51,52.013
c11.119,0,20.132-9.015,20.132-20.134c0-11.118-9.013-20.13-20.132-20.13c-11.117,0-20.131,9.012-20.131,20.13
C11.378,42.998,20.393,52.013,31.51,52.013L31.51,52.013z M1.198,31.879c0-16.74,13.571-30.31,30.312-30.31
c16.74,0,30.313,13.57,30.313,30.31c0,16.742-13.573,30.312-30.313,30.312C14.769,62.19,1.198,48.621,1.198,31.879L1.198,31.879z"/>
<polygon points="71.667,10.125 106.206,10.125 106.206,18.839 94.326,18.839 94.326,53.765 83.771,53.765 83.771,18.905 
71.667,18.905 71.667,10.125 "/>
<path d="M158.224,18.905h-9.683v8.713c0,0,7.554,0.026,8.684,0c3.034-0.063,5.38-1.418,5.38-4.39
C162.604,19.997,160.613,18.905,158.224,18.905L158.224,18.905z M138.469,10.125c0,0,7.942,0,20.498,0
c11.653,0,13.266,7.973,13.266,12.62c0,6.747-5.81,10.137-6.326,10.266c0,0,5.102,1.904,5.102,7.683v8.134
c0,3.262,2.001,4.164,2.354,4.938h-8.327c-3.971-0.45-3.905-3.613-3.874-5.422v-7.003c-0.097-1.71-0.613-3.618-4.196-3.681h-8.424
v16.106h-10.103L138.469,10.125L138.469,10.125z"/>
<polygon points="216.78,10.125 216.78,53.765 248.218,53.765 248.218,44.793 227.044,44.793 227.044,35.042 245.12,35.042 
245.12,26.781 227.044,26.781 227.044,18.905 248.218,18.905 248.218,10.125 216.78,10.125 "/>
<polygon points="249.705,18.905 262.166,18.905 262.166,53.765 272.492,53.765 272.492,18.905 285.145,18.905 285.145,10.125 
249.705,10.125 249.705,18.905 "/>
<path d="M117.115,25.522l-3.712,11.265h7.652L117.115,25.522L117.115,25.522z M111.265,10.117h11.202l15.26,43.648H126.87
l-3.152-9.069h-12.881l-2.973,9.069H97.098L111.265,10.117L111.265,10.117z"/>
<path d="M213.164,29.396h-18.753v8.488h8.907c-0.018,1.747,0.259,3.49-1.834,5.943c-0.714,0.835-3.153,2.708-6.56,2.708
c-2.872,0-4.937-0.821-6.729-2.342c-3.959-3.362-4.891-9.642-4.891-12.927c0-4.132,1.645-14.394,11.748-14.815
c0,0,6.813-0.44,8.589,7.778h9.456c-0.192-4.165-5.036-15.862-18.045-15.88c-4.49-0.006-10.188,1.345-14.906,6.07
c-3.418,3.422-6.493,9.169-6.493,17.266c0,8.784,3.233,14.494,6.19,17.63c5.19,5.509,10.421,5.933,13.145,5.933
c2.161,0,6.295-0.321,11.653-3.937l1.419,2.452h7.103V29.396L213.164,29.396z"/>
<path d="M277.283,50.896h0.543c0.347,0,0.604-0.054,0.604-0.427c0-0.333-0.352-0.384-0.633-0.384h-0.514V50.896L277.283,50.896z
 M276.672,49.608h1.161c0.771,0,1.208,0.24,1.208,0.912c0,0.565-0.354,0.783-0.81,0.823l0.822,1.346h-0.638l-0.75-1.316h-0.383
v1.316h-0.611V49.608L276.672,49.608z M277.768,53.322c1.141,0,2.074-0.913,2.074-2.171c0-1.251-0.934-2.154-2.074-2.154
c-1.157,0-2.076,0.903-2.076,2.154C275.691,52.409,276.61,53.322,277.768,53.322L277.768,53.322z M277.768,48.406
c1.492,0,2.824,1.075,2.824,2.745c0,1.677-1.332,2.758-2.824,2.758c-1.494,0-2.826-1.081-2.826-2.758
C274.941,49.481,276.273,48.406,277.768,48.406L277.768,48.406z"/>
</svg>
